<svg id="Capa_1" enable-background="new 0 0 511.966 511.966" height="512" viewBox="0 0 511.966 511.966" width="512" xmlns="http://www.w3.org/2000/svg"><g><g><g><path d="m11.16 167.218c1.277 11.651 10.714 20.753 22.409 21.572.967.068 1.928.136 2.889.198 7.131.484 12.674 6.405 12.674 13.554v27.022c0 9.09 10.404 14.249 17.634 8.743 13.195-10.051 30.748-25.001 41.519-40.502 2.548-3.671 6.758-5.81 11.229-5.785 33.16.167 66.321-.899 99.481-3.23 9.245-.645 17.095-6.455 20.592-14.627.93-2.145 1.55-4.464 1.817-6.889 4.911-44.861 4.911-89.728 0-134.595-1.277-11.638-10.721-20.697-22.396-21.516-49.4-3.466-98.793-4.161-148.186-2.083-12.413.515-24.833 1.209-37.246 2.083-11.682.818-21.131 9.877-22.409 21.516-4.911 44.849-4.911 89.691-.007 134.539z" fill="#6bbef6"/><path d="m32.44 32.678c-4.91 44.85-4.91 89.69 0 134.54 1.28 11.65 10.71 20.75 22.41 21.57.96.07 1.93.13 2.89.2 7.13.48 12.67 6.4 12.67 13.55v27.02c0 1.85.43 3.53 1.18 5-1.66 1.31-3.27 2.56-4.83 3.75-7.23 5.5-17.63.34-17.63-8.75v-27.02c0-7.15-5.55-13.07-12.68-13.55-.96-.07-1.92-.13-2.89-.2-11.69-.82-21.13-9.92-22.4-21.57-4.91-44.85-4.91-89.69 0-134.54 1.28-11.64 10.73-20.7 22.41-21.52 12.41-.87 24.83-1.57 37.25-2.08 22.12-.93 44.25-1.31 66.37-1.12-15.03.11-30.06.49-45.09 1.12-12.41.51-24.83 1.21-37.25 2.08-11.68.82-21.13 9.88-22.41 21.52z" fill="#528ecb"/><path d="m500.805 306.574c-1.277 11.651-10.714 20.753-22.409 21.572-.967.068-1.928.136-2.889.198-7.131.483-12.674 6.405-12.674 13.554v27.022c0 9.09-10.404 14.249-17.634 8.743-13.195-10.051-30.748-25-41.519-40.502-2.548-3.671-6.758-5.81-11.229-5.785-33.16.167-66.321-.899-99.481-3.23-9.245-.645-17.095-6.455-20.592-14.627-.93-2.145-1.55-4.464-1.817-6.889-4.911-44.861-4.911-89.728 0-134.595 1.277-11.638 10.721-20.697 22.396-21.516 49.4-3.466 98.793-4.161 148.186-2.083 12.413.515 24.833 1.209 37.246 2.083 11.682.818 21.131 9.877 22.409 21.516 4.912 44.849 4.912 89.691.007 134.539z" fill="#f4dd45"/><path d="m302.381 328.776c-3.14-.2-6.27-.41-9.41-.63-9.24-.64-17.09-6.45-20.59-14.62-.93-2.15-1.55-4.47-1.82-6.89-4.91-44.86-4.91-89.73 0-134.6 1.28-11.63 10.72-20.69 22.4-21.51 4.41-.31 8.83-.6 13.24-.86-6.51 4.09-11.07 11-11.96 19.08-5.25 47.96-5.25 95.93 0 143.88.29 2.59.95 5.07 1.94 7.37 1.44 3.35 3.56 6.34 6.2 8.78z" fill="#eab14d"/><path d="m11.16 430.694c1.277 11.651 10.714 20.753 22.409 21.572.967.068 1.928.136 2.889.198 7.131.484 12.674 6.405 12.674 13.554v27.022c0 9.09 10.404 14.249 17.634 8.743 13.195-10.051 30.748-25.001 41.519-40.502 2.548-3.671 6.758-5.81 11.229-5.785 33.16.167 66.321-.899 99.481-3.23 9.245-.645 17.095-6.455 20.592-14.627.93-2.145 1.55-4.464 1.817-6.889 4.911-44.861 4.911-89.728 0-134.595-1.277-11.638-10.721-20.697-22.396-21.516-49.4-3.466-98.793-4.161-148.186-2.083-12.413.515-24.833 1.209-37.246 2.083-11.682.818-21.131 9.877-22.409 21.516-4.911 44.849-4.911 89.691-.007 134.539z" fill="#6bbef6"/><path d="m32.44 296.154c-4.91 44.85-4.91 89.69 0 134.54 1.28 11.65 10.71 20.75 22.41 21.57.96.07 1.93.13 2.89.2 7.13.48 12.67 6.4 12.67 13.55v27.02c0 1.85.43 3.53 1.18 5-1.66 1.31-3.27 2.56-4.83 3.75-7.23 5.5-17.63.34-17.63-8.75v-27.02c0-7.15-5.55-13.07-12.68-13.55-.96-.07-1.92-.13-2.89-.2-11.69-.82-21.13-9.92-22.4-21.57-4.91-44.85-4.91-89.69 0-134.54 1.28-11.64 10.73-20.7 22.41-21.52 12.41-.87 24.83-1.57 37.25-2.08 22.12-.93 44.25-1.31 66.37-1.12-15.03.11-30.06.49-45.09 1.12-12.41.51-24.83 1.21-37.25 2.08-11.68.82-21.13 9.88-22.41 21.52z" fill="#528ecb"/></g><g><path d="m219.533 3.682c-49.445-3.47-99.585-4.175-149.021-2.096-12.443.516-25.048 1.221-37.46 2.096-15.328 1.074-27.666 12.925-29.341 28.181-4.946 45.169-4.948 90.984-.006 136.17v.002c1.676 15.289 14.016 27.164 29.335 28.236.981.069 1.957.138 2.911.2 3.186.216 5.681 2.883 5.681 6.071v27.021c0 7.078 3.939 13.426 10.28 16.567 2.623 1.299 5.432 1.939 8.224 1.939 3.956 0 7.876-1.285 11.175-3.797 13.394-10.203 31.75-25.805 43.134-42.191 1.116-1.606 2.979-2.563 4.996-2.563h.035c33.333.169 66.99-.925 100.041-3.249 11.932-.833 22.265-8.174 26.951-19.125 1.24-2.861 2.045-5.907 2.391-9.056 4.947-45.193 4.947-91.027 0-136.229-1.674-15.252-14.008-27.103-29.326-28.177zm14.416 162.772c-.182 1.652-.6 3.242-1.257 4.758-2.477 5.788-7.925 9.657-14.223 10.096-32.681 2.298-65.96 3.379-98.913 3.212-.04 0-.08 0-.12 0-6.927 0-13.392 3.361-17.311 9.006-10.269 14.779-27.368 29.266-39.903 38.814-1.55 1.181-3.07.638-3.652.35-.583-.289-1.938-1.171-1.938-3.126v-27.021c0-11.049-8.639-20.29-19.687-21.039-.947-.062-1.894-.128-2.853-.196-8.083-.566-14.591-6.834-15.477-14.906-4.823-44.104-4.821-88.82.005-132.905.882-8.04 7.392-14.286 15.48-14.853 12.272-.865 24.731-1.562 37.035-2.072 48.884-2.056 98.458-1.358 147.347 2.072 8.079.566 14.583 6.813 15.465 14.85 4.83 44.119 4.83 88.853.002 132.96z"/><path d="m203.552 41.113h-154.534c-4.142 0-7.5 3.358-7.5 7.5s3.358 7.5 7.5 7.5h154.534c4.142 0 7.5-3.358 7.5-7.5s-3.358-7.5-7.5-7.5z"/><path d="m203.552 72.847h-154.534c-4.142 0-7.5 3.358-7.5 7.5s3.358 7.5 7.5 7.5h154.534c4.142 0 7.5-3.358 7.5-7.5s-3.358-7.5-7.5-7.5z"/><path d="m135.943 104.582h-86.925c-4.142 0-7.5 3.358-7.5 7.5s3.358 7.5 7.5 7.5h86.925c4.142 0 7.5-3.358 7.5-7.5s-3.358-7.5-7.5-7.5z"/><path d="m219.536 267.158c-49.418-3.472-99.56-4.176-149.023-2.092-12.198.501-24.803 1.205-37.468 2.092-15.33 1.076-27.666 12.931-29.33 28.185-4.945 45.16-4.948 90.971-.009 136.165 1.678 15.292 14.018 27.169 29.401 28.248l2.839.187c3.188.219 5.685 2.889 5.685 6.078v27.02c0 7.078 3.94 13.426 10.284 16.567 2.623 1.299 5.433 1.938 8.224 1.938 3.957 0 7.877-1.285 11.175-3.798 12.047-9.171 28.829-23.276 40.359-38.388 2.513-3.293 1.88-8-1.413-10.512-3.292-2.512-7.999-1.88-10.512 1.413-10.516 13.781-26.208 26.94-37.524 35.554-1.55 1.182-3.072.639-3.654.35-.583-.289-1.94-1.171-1.94-3.125v-27.02c0-11.042-8.634-20.285-19.702-21.045l-2.834-.186c-8.083-.566-14.592-6.84-15.479-14.914-4.82-44.107-4.817-88.821.01-132.901.877-8.038 7.383-14.284 15.468-14.852 12.52-.877 24.98-1.573 37.042-2.068 48.913-2.061 98.488-1.364 147.349 2.068 8.081.568 14.583 6.814 15.46 14.854 4.829 44.112 4.829 88.846-.002 132.977-.174 1.632-.59 3.217-1.247 4.734-2.479 5.789-7.929 9.659-14.221 10.102-27.178 1.909-54.895 2.982-82.382 3.191-4.142.032-7.474 3.415-7.443 7.557.032 4.123 3.383 7.443 7.499 7.443h.058c27.798-.211 55.831-1.298 83.319-3.229 11.925-.839 22.254-8.18 26.947-19.134 1.247-2.882 2.048-5.934 2.382-9.052 4.947-45.195 4.947-91.027 0-136.219-1.663-15.257-13.994-27.112-29.318-28.188z"/><path d="m49.018 325.089h154.534c4.142 0 7.5-3.358 7.5-7.5s-3.358-7.5-7.5-7.5h-154.534c-4.142 0-7.5 3.358-7.5 7.5s3.358 7.5 7.5 7.5z"/><path d="m49.018 356.823h92.722c4.142 0 7.5-3.358 7.5-7.5s-3.358-7.5-7.5-7.5h-92.722c-4.142 0-7.5 3.358-7.5 7.5s3.358 7.5 7.5 7.5z"/><path d="m462.947 176.665h-154.533c-4.143 0-7.5 3.358-7.5 7.5s3.357 7.5 7.5 7.5h154.533c4.143 0 7.5-3.358 7.5-7.5s-3.357-7.5-7.5-7.5z"/><path d="m470.447 215.9c0-4.142-3.357-7.5-7.5-7.5h-154.533c-4.143 0-7.5 3.358-7.5 7.5s3.357 7.5 7.5 7.5h154.533c4.143 0 7.5-3.358 7.5-7.5z"/><path d="m308.414 240.134c-4.143 0-7.5 3.358-7.5 7.5s3.357 7.5 7.5 7.5h86.925c4.143 0 7.5-3.358 7.5-7.5s-3.357-7.5-7.5-7.5z"/></g></g><path d="m451.831 387.425c-3.956 0-7.877-1.285-11.177-3.8-13.387-10.192-31.738-25.786-43.133-42.186-1.115-1.605-2.974-2.56-4.979-2.56-.014 0-.027 0-.042 0-33.426.159-67.084-.932-100.055-3.249-11.94-.839-22.271-8.183-26.962-19.166-1.225-2.829-2.029-5.871-2.377-9.009-4.948-45.206-4.948-91.038-.001-136.232 1.678-15.258 14.013-27.111 29.33-28.186 37.68-2.65 75.927-3.699 113.68-3.118 4.142.063 7.447 3.473 7.384 7.614-.064 4.142-3.485 7.452-7.614 7.384-37.331-.576-75.144.462-112.397 3.083-8.081.567-14.587 6.816-15.472 14.858-4.828 44.108-4.828 88.842 0 132.954.183 1.642.603 3.236 1.248 4.727 2.484 5.817 7.933 9.685 14.232 10.128 32.599 2.291 65.866 3.368 98.918 3.211h.142c6.906 0 13.363 3.357 17.284 9.002 10.279 14.793 27.373 29.271 39.903 38.812 1.495 1.139 2.929.71 3.649.354.582-.289 1.938-1.171 1.938-3.127v-27.02c0-11.051 8.644-20.29 19.677-21.033l2.852-.198c8.101-.568 14.606-6.835 15.486-14.902 4.829-44.104 4.829-88.82.001-132.911-.885-8.039-7.395-14.287-15.48-14.855-12.492-.876-24.952-1.571-37.032-2.068-.499-.023-.961-.039-1.42-.054-4.141-.135-7.387-3.601-7.252-7.741.136-4.14 3.612-7.373 7.74-7.251.529.018 1.063.036 1.589.061 12.183.5 24.788 1.204 37.425 2.09 15.324 1.075 27.663 12.928 29.341 28.182 4.947 45.177 4.947 90.992 0 136.176-1.666 15.284-14.002 27.16-29.331 28.235l-2.866.199c-3.231.218-5.729 2.882-5.729 6.07v27.02c0 7.08-3.939 13.428-10.28 16.569-2.622 1.297-5.43 1.937-8.22 1.937z"/></g></svg>